<?xml version="1.0" encoding="UTF-8"?>
<!DOCTYPE svg PUBLIC "-//W3C//DTD SVG 1.1//EN" "http://www.w3.org/Graphics/SVG/1.1/DTD/svg11.dtd">
<!-- Creator: CorelDRAW X5 -->
<svg xmlns="http://www.w3.org/2000/svg" xml:space="preserve" width="215.9mm" height="197.127mm" style="shape-rendering:geometricPrecision; text-rendering:geometricPrecision; image-rendering:optimizeQuality; fill-rule:evenodd; clip-rule:evenodd"
viewBox="0 0 82157 75013"
 xmlns:xlink="http://www.w3.org/1999/xlink"
 version="1.1">
 <defs>
  <style type="text/css">
   <![CDATA[
    .fil0 {fill:#FFC105}
   ]]>
  </style>
 </defs>
 <g id="Capa_x0020_1">
  <metadata id="CorelCorpID_0Corel-Layer"/>
  <g id="_211751024">
   <g>
    <g>
     <path class="fil0" d="M19646 25005l-7144 0c-2954,0 -5358,2404 -5358,5358l0 17860c0,986 798,1786 1786,1786 988,0 1786,-800 1786,-1786l0 -5358 10716 0 0 5358c0,986 798,1786 1786,1786 988,0 1786,-800 1786,-1786l0 -17860c0,-2954 -2404,-5358 -5358,-5358zm1786 14288l-10716 0 0 -8930c0,-984 800,-1786 1786,-1786l7144 0c986,0 1786,802 1786,1786l0 8930z"/>
    </g>
   </g>
   <g>
    <g>
     <path class="fil0" d="M42864 25005l-7144 0c-988,0 -1786,800 -1786,1786l0 21432c0,986 798,1786 1786,1786 988,0 1786,-800 1786,-1786l0 -5358 5358 0c4924,0 8930,-4006 8930,-8930 0,-4924 -4006,-8930 -8930,-8930zm0 14288l-5358 0 0 -10716 5358 0c2954,0 5358,2404 5358,5358 0,2954 -2404,5358 -5358,5358z"/>
    </g>
   </g>
   <g>
    <g>
     <path class="fil0" d="M73227 46437l-5358 0 0 -17860 5358 0c988,0 1786,-800 1786,-1786 0,-986 -798,-1786 -1786,-1786l-14288 0c-988,0 -1786,800 -1786,1786 0,986 798,1786 1786,1786l5358 0 0 17860 -5358 0c-988,0 -1786,800 -1786,1786 0,986 798,1786 1786,1786l14288 0c988,0 1786,-800 1786,-1786 0,-986 -798,-1786 -1786,-1786z"/>
    </g>
   </g>
   <g>
    <g>
     <path class="fil0" d="M76799 7145l-27837 0 -6621 -6621c-698,-698 -1827,-698 -2525,0l-6621 6621 -27837 0c-2954,0 -5358,2404 -5358,5358l0 5358c0,986 798,1786 1786,1786 988,0 1786,-800 1786,-1786l0 -5358c0,-984 800,-1786 1786,-1786l28576 0c475,0 929,-188 1263,-523l5881 -5881 5881 5881c334,336 788,523 1263,523l28576 0c986,0 1786,802 1786,1786l0 5358c0,986 798,1786 1786,1786 988,0 1786,-800 1786,-1786l0 -5358c0,-2954 -2404,-5358 -5358,-5358z"/>
    </g>
   </g>
   <g>
    <g>
     <path class="fil0" d="M80371 55367c-988,0 -1786,800 -1786,1786l0 5358c0,984 -800,1786 -1786,1786l-28576 0c-475,0 -929,188 -1263,523l-5881 5881 -5881 -5881c-334,-336 -788,-523 -1263,-523l-28576 0c-986,0 -1786,-802 -1786,-1786l0 -5358c0,-986 -798,-1786 -1786,-1786 -988,0 -1786,800 -1786,1786l0 5358c0,2954 2404,5358 5358,5358l27837 0 6621 6621c348,348 806,523 1263,523 457,0 914,-175 1263,-523l6621 -6621 27837 0c2954,0 5358,-2404 5358,-5358l0 -5358c0,-986 -798,-1786 -1786,-1786z"/>
    </g>
   </g>
   <g>
   </g>
   <g>
   </g>
   <g>
   </g>
   <g>
   </g>
   <g>
   </g>
   <g>
   </g>
   <g>
   </g>
   <g>
   </g>
   <g>
   </g>
   <g>
   </g>
   <g>
   </g>
   <g>
   </g>
   <g>
   </g>
   <g>
   </g>
   <g>
   </g>
  </g>
 </g>
</svg>
