<?xml version="1.0" encoding="UTF-8"?>
<!DOCTYPE svg PUBLIC "-//W3C//DTD SVG 1.1//EN" "http://www.w3.org/Graphics/SVG/1.1/DTD/svg11.dtd">
<!-- Creator: CorelDRAW X5 -->
<svg xmlns="http://www.w3.org/2000/svg" xml:space="preserve" width="15.8747mm" height="5.622mm" style="shape-rendering:geometricPrecision; text-rendering:geometricPrecision; image-rendering:optimizeQuality; fill-rule:evenodd; clip-rule:evenodd"
viewBox="0 0 1587 562"
 xmlns:xlink="http://www.w3.org/1999/xlink">
 <defs>
  <style type="text/css">
   <![CDATA[
    .fil0 {fill:#FFC105}
   ]]>
  </style>
 </defs>
 <g id="Capa_x0020_1">
  <metadata id="CorelCorpID_0Corel-Layer"/>
  <g id="_251718904">
   <path class="fil0" d="M265 0l0 418c-44,8 -68,12 -103,12 -106,0 -161,-47 -161,-138 0,-88 59,-144 149,-144 14,0 25,1 38,4l0 -152 77 0zm-77 221c-10,-3 -19,-4 -29,-4 -44,0 -69,27 -69,74 0,46 24,71 69,71 10,0 17,-1 30,-2l0 -138 0 0z"/>
   <path class="fil0" d="M397 134l0 219c0,69 -5,107 -20,135 -14,27 -33,45 -71,64l-81 -38c38,-18 57,-34 69,-58 12,-25 16,-58 16,-133l0 -189 87 0 0 0z"/>
   <rect class="fil0" x="310" width="87" height="90"/>
   <path class="fil0" d="M454 161c38,-18 74,-26 113,-26 44,0 72,12 85,35 7,13 9,30 9,67l0 179c-38,6 -86,10 -121,10 -71,0 -103,-26 -103,-83 0,-62 43,-90 147,-99l0 -19c0,-16 -8,-22 -29,-22 -31,0 -67,9 -100,27l0 -68zm133 140c-56,6 -75,15 -75,38 0,17 11,25 34,25 13,0 24,-1 41,-4l0 -59 0 0z"/>
   <path class="fil0" d="M708 155c50,-14 92,-20 134,-20 44,0 75,10 94,31 18,19 23,40 23,85l0 175 -85 0 0 -172c0,-34 -11,-47 -41,-47 -12,0 -22,1 -39,6l0 212 -85 0 0 -271z"/>
   <path class="fil0" d="M998 463c30,16 61,23 93,23 57,0 81,-16 81,-72l0 -2c-17,9 -34,12 -56,12 -76,0 -124,-51 -124,-132 0,-101 71,-157 198,-157 37,0 72,4 113,13l-30 64c-23,-5 -2,-1 -19,-2l0 9 1 37 1 48c1,12 1,24 1,36l0 24c0,76 -6,104 -25,133 -27,43 -74,64 -140,64 -34,0 -63,-5 -94,-17l0 -82 0 0zm172 -256l-3 0 -6 0c-17,-1 -37,4 -50,13 -21,12 -32,34 -32,65 0,44 21,70 60,70 12,0 21,-2 33,-6l0 -6 0 -24c0,-10 -1,-22 -1,-34l-1 -41 -1 -29 0 -7 0 0z"/>
   <path class="fil0" d="M1441 134c91,0 147,55 147,144 0,91 -58,148 -150,148 -91,0 -147,-55 -147,-143 0,-92 58,-149 151,-149zm-2 222c35,0 56,-28 56,-76 0,-48 -20,-76 -55,-76 -36,0 -57,28 -57,76 0,48 21,76 56,76l0 0z"/>
  </g>
 </g>
</svg>
