<?xml version="1.0" encoding="UTF-8"?>
<!DOCTYPE svg PUBLIC "-//W3C//DTD SVG 1.1//EN" "http://www.w3.org/Graphics/SVG/1.1/DTD/svg11.dtd">
<!-- Creator: CorelDRAW X5 -->
<svg xmlns="http://www.w3.org/2000/svg" xml:space="preserve" width="215.9mm" height="182.1mm" style="shape-rendering:geometricPrecision; text-rendering:geometricPrecision; image-rendering:optimizeQuality; fill-rule:evenodd; clip-rule:evenodd"
viewBox="0 0 4825 4070"
 xmlns:xlink="http://www.w3.org/1999/xlink"
 version="1.1">
 <defs>
  <style type="text/css">
   <![CDATA[
    .str0 {stroke:#FFC105;stroke-width:1.70309}
    .fil0 {fill:#FFC105}
   ]]>
  </style>
 </defs>
 <g id="Capa_x0020_1">
  <metadata id="CorelCorpID_0Corel-Layer"/>
  <g id="_250556728">
   <g>
    <path class="fil0" d="M4301 0l-3777 0c-289,0 -524,235 -524,524l0 3022c0,289 235,524 524,524l3777 0c289,0 524,-235 524,-524l0 -3022c0,-289 -235,-524 -524,-524zm382 3546c0,211 -172,382 -382,382l-3777 0c-211,0 -382,-172 -382,-382l0 -3022c0,-211 172,-382 382,-382l3777 0c211,0 382,172 382,382l0 3022z"/>
    <path class="fil0" d="M4452 755l-4079 0c-39,0 -71,32 -71,71 0,39 32,71 71,71l4079 0c39,0 71,-32 71,-71 0,-39 -32,-71 -71,-71z"/>
    <path class="fil0" d="M524 519c19,0 37,-8 50,-21 13,-13 21,-31 21,-50 0,-19 -8,-37 -21,-50 -13,-13 -31,-21 -50,-21 -19,0 -37,8 -50,21 -13,13 -21,31 -21,50 0,19 8,37 21,50 13,13 31,21 50,21z"/>
    <path class="fil0 str0" d="M1128 519c19,0 37,-8 50,-21 13,-13 21,-31 21,-50 0,-19 -8,-37 -21,-50 -13,-13 -31,-21 -50,-21 -19,0 -37,8 -50,21 -13,13 -21,31 -21,50 0,19 8,37 21,50 13,13 31,21 50,21z"/>
    <path class="fil0 str0" d="M826 519c19,0 37,-8 50,-21 13,-13 21,-31 21,-50 0,-19 -8,-37 -21,-50 -13,-13 -31,-21 -50,-21 -19,0 -37,8 -50,21 -13,13 -21,31 -21,50 0,19 8,37 21,50 13,13 31,21 50,21z"/>
   </g>
   <g>
   </g>
   <g>
   </g>
   <g>
   </g>
   <g>
   </g>
   <g>
   </g>
   <g>
   </g>
   <g>
   </g>
   <g>
   </g>
   <g>
   </g>
   <g>
   </g>
   <g>
   </g>
   <g>
   </g>
   <g>
   </g>
   <g>
   </g>
   <g>
   </g>
  </g>
 </g>
</svg>
