<?xml version="1.0" encoding="UTF-8"?>
<!DOCTYPE svg PUBLIC "-//W3C//DTD SVG 1.1//EN" "http://www.w3.org/Graphics/SVG/1.1/DTD/svg11.dtd">
<!-- Creator: CorelDRAW X5 -->
<svg xmlns="http://www.w3.org/2000/svg" xml:space="preserve" width="131.233mm" height="131.233mm" style="shape-rendering:geometricPrecision; text-rendering:geometricPrecision; image-rendering:optimizeQuality; fill-rule:evenodd; clip-rule:evenodd"
viewBox="0 0 2888 2888"
 xmlns:xlink="http://www.w3.org/1999/xlink">
 <defs>
  <style type="text/css">
   <![CDATA[
    .str0 {stroke:#FFC105;stroke-width:1.67674}
    .fil0 {fill:#FFC105}
   ]]>
  </style>
 </defs>
 <g id="Capa_x0020_1">
  <metadata id="CorelCorpID_0Corel-Layer"/>
  <g id="_250557016">
   <polygon class="fil0" points="1139,1957 1232,1957 1232,2050 1139,2050 "/>
   <polygon class="fil0" points="767,1957 860,1957 860,2050 767,2050 "/>
   <polygon class="fil0" points="953,1957 1046,1957 1046,2050 953,2050 "/>
   <path class="fil0" d="M2655 279l-140 0 0 -140c0,-77 -63,-140 -140,-140l-1863 0c-77,0 -140,63 -140,140l0 140 -140 0c-128,0 -233,104 -233,233l0 1584c0,128 104,233 233,233l837 0c-8,74 -46,142 -107,186l-124 0c-128,0 -233,104 -233,233 0,77 63,140 140,140l1397 0c77,0 140,-63 140,-140 0,-128 -104,-233 -233,-233l-124 0c-61,-45 -99,-112 -107,-186l837 0c128,0 233,-104 233,-233l0 -1584c0,-128 -104,-233 -233,-233l0 0zm-885 932l466 0 0 652 -466 0 0 -652zm344 -404c-24,-38 -65,-61 -111,-61 -45,0 -87,23 -111,61l-215 344 0 712 -482 0 -40 -72c7,-15 13,-30 19,-45l131 -33 0 -352 -131 -33c-6,-15 -12,-30 -19,-45l69 -116 -249 -249 -116 69c-15,-7 -30,-13 -45,-19l-33 -131 -316 0 0 -186 1956 0 0 1211 -93 0 0 -712 -215 -344zm-1741 1056l-93 0 0 -1304 93 0 0 1304zm93 -141c39,30 87,48 140,48 128,0 233,-104 233,-233 0,-128 -104,-233 -233,-233 -53,0 -101,18 -140,48l0 -109c44,-21 91,-32 140,-32 180,0 326,146 326,326 0,180 -146,326 -326,326l-140 0 0 -141zm0 -185c0,-77 63,-140 140,-140 77,0 140,63 140,140 0,77 -63,140 -140,140 -77,0 -140,-63 -140,-140zm559 0c0,-231 -188,-419 -419,-419 -48,0 -95,9 -140,25l0 -211 243 0 28 110 25 8c26,8 52,19 79,33l23 12 98 -58 146 146 -58 98 12 23c13,26 24,52 33,78l8 25 110 28 0 207 -110 28 -8 25c-8,26 -19,52 -33,78l-12 22 39 69 -219 0c95,-77 156,-194 156,-326zm1490 -978l93 0 0 1304 -93 0 0 -1304zm-2003 -466l1863 0c26,0 47,21 47,47l0 419 -1956 0 0 -419c0,-26 21,-47 47,-47l0 0zm1677 2655c0,26 -21,47 -47,47l-1397 0c-26,0 -47,-21 -47,-47 0,-77 63,-140 140,-140l1211 0c77,0 140,63 140,140zm-394 -233l-701 0c40,-54 64,-118 69,-186l562 0c5,68 30,133 70,186l0 0zm1000 -419c0,77 -63,140 -140,140l-2422 0c-77,0 -140,-63 -140,-140l0 -1584c0,-77 63,-140 140,-140l140 0 0 93 -93 0c-51,0 -93,42 -93,93l0 1304c0,51 42,93 93,93l2329 0c51,0 93,-42 93,-93l0 -1304c0,-51 -42,-93 -93,-93l-93 0 0 -93 140 0c77,0 140,63 140,140l0 1584z"/>
   <path class="fil0 str0" d="M1326 94l-279 0 0 279 279 0 0 -279zm-93 186l-93 0 0 -93 93 0 0 93z"/>
   <path class="fil0" d="M1698 94l-279 0 0 279 279 0 0 -279zm-93 186l-93 0 0 -93 93 0 0 93z"/>
   <path class="fil0" d="M2071 94l-279 0 0 279 279 0 0 -279zm-93 186l-93 0 0 -93 93 0 0 93z"/>
   <polygon class="fil0" points="2443,1585 2537,1585 2537,1678 2443,1678 "/>
   <polygon class="fil0" points="2443,1212 2537,1212 2537,1305 2443,1305 "/>
   <polygon class="fil0" points="2443,1398 2537,1398 2537,1491 2443,1491 "/>
  </g>
 </g>
</svg>
