<?xml version="1.0" encoding="UTF-8"?>
<!DOCTYPE svg PUBLIC "-//W3C//DTD SVG 1.1//EN" "http://www.w3.org/Graphics/SVG/1.1/DTD/svg11.dtd">
<!-- Creator: CorelDRAW X5 -->
<svg xmlns="http://www.w3.org/2000/svg" xml:space="preserve" width="215.9mm" height="203.986mm" style="shape-rendering:geometricPrecision; text-rendering:geometricPrecision; image-rendering:optimizeQuality; fill-rule:evenodd; clip-rule:evenodd"
viewBox="0 0 5152 4868"
 xmlns:xlink="http://www.w3.org/1999/xlink"
 version="1.1">
 <defs>
  <style type="text/css">
   <![CDATA[
    .fil0 {fill:#FFC105}
   ]]>
  </style>
 </defs>
 <g id="Capa_x0020_1">
  <metadata id="CorelCorpID_0Corel-Layer"/>
  <g id="_251779984">
   <g>
    <g>
     <path class="fil0" d="M3413 2280c391,-177 449,-1527 219,-1924 -301,-519 -1734,-415 -2187,-44 -52,184 -47,519 -44,784l1420 0 0 124 -1420 0c0,2 -632,4 -632,4 -1090,0 -1068,2368 371,2368 0,0 53,-524 145,-787 285,-811 1485,-233 2128,-525zm-1487 -1376c-164,0 -296,-133 -296,-297 0,-164 133,-297 296,-297 164,0 297,133 297,297 0,164 -133,297 -297,297z"/>
     <path class="fil0" d="M3963 1275c0,0 -38,525 -130,787 -285,811 -1484,233 -2128,525 -391,177 -450,1527 -219,1924 301,519 1734,415 2187,44 52,-184 47,-518 44,-784l-1421 0 0 -124 1420 0c0,-2 700,-4 700,-4 1005,0 1095,-2368 -453,-2368zm-822 2637c164,0 297,133 297,297 0,164 -133,296 -297,296 -164,0 -296,-133 -296,-296 0,-164 133,-297 296,-297z"/>
    </g>
   </g>
   <g>
   </g>
   <g>
   </g>
   <g>
   </g>
   <g>
   </g>
   <g>
   </g>
   <g>
   </g>
   <g>
   </g>
   <g>
   </g>
   <g>
   </g>
   <g>
   </g>
   <g>
   </g>
   <g>
   </g>
   <g>
   </g>
   <g>
   </g>
   <g>
   </g>
  </g>
 </g>
</svg>
