<?xml version="1.0" encoding="UTF-8"?>
<!DOCTYPE svg PUBLIC "-//W3C//DTD SVG 1.1//EN" "http://www.w3.org/Graphics/SVG/1.1/DTD/svg11.dtd">
<!-- Creator: CorelDRAW X5 -->
<svg xmlns="http://www.w3.org/2000/svg" xml:space="preserve" width="215.9mm" height="203.986mm" style="shape-rendering:geometricPrecision; text-rendering:geometricPrecision; image-rendering:optimizeQuality; fill-rule:evenodd; clip-rule:evenodd"
viewBox="0 0 9728 9191"
 xmlns:xlink="http://www.w3.org/1999/xlink"
 version="1.1">
 <defs>
  <style type="text/css">
   <![CDATA[
    .fil0 {fill:#1C1B17}
   ]]>
  </style>
 </defs>
 <g id="Capa_x0020_1">
  <metadata id="CorelCorpID_0Corel-Layer"/>
  <g id="_251779984">
   <g>
    <g>
     <path class="fil0" d="M6444 4306c739,-335 849,-2883 413,-3634 -569,-980 -3275,-783 -4129,-83 -98,348 -88,979 -83,1481l2682 0 0 235 -2681 0c0,3 -1194,7 -1194,7 -2058,0 -2016,4470 700,4470 0,0 100,-990 274,-1486 539,-1531 2803,-440 4018,-991zm-2808 -2598c-309,0 -559,-250 -559,-560 0,-309 250,-560 559,-560 310,0 560,251 560,560 1,309 -250,560 -560,560z"/>
     <path class="fil0" d="M7483 2407c0,0 -71,991 -246,1486 -539,1531 -2803,440 -4018,991 -738,335 -849,2883 -413,3634 569,980 3274,784 4129,83 98,-347 88,-979 83,-1481l-2682 0 0 -235 2681 0c0,-3 1321,-7 1321,-7 1897,0 2067,-4471 -856,-4471zm-1552 4978c309,0 560,250 560,560 0,309 -251,559 -560,559 -309,0 -559,-250 -559,-559 0,-310 250,-560 559,-560z"/>
    </g>
   </g>
   <g>
   </g>
   <g>
   </g>
   <g>
   </g>
   <g>
   </g>
   <g>
   </g>
   <g>
   </g>
   <g>
   </g>
   <g>
   </g>
   <g>
   </g>
   <g>
   </g>
   <g>
   </g>
   <g>
   </g>
   <g>
   </g>
   <g>
   </g>
   <g>
   </g>
  </g>
 </g>
</svg>
